Coordinates
version=1
nRows=9
nColumns=24
inDegrees=yes

Units are S.I. units (second, meters, Newtons, ...)
Angles are in degrees.

endheader
time	pelvis_tilt	pelvis_list	pelvis_rotation	pelvis_tx	pelvis_ty	pelvis_tz	hip_flexion_r	hip_adduction_r	hip_rotation_r	knee_angle_r	ankle_angle_r	subtalar_angle_r	mtp_angle_r	hip_flexion_l	hip_adduction_l	hip_rotation_l	knee_angle_l	ankle_angle_l	subtalar_angle_l	mtp_angle_l	lumbar_extension	lumbar_bending	lumbar_rotation
      2.65000000	      5.73864967	      6.88962098	     -0.81951500	      0.16399149	      0.99273948	      0.02508886	      7.02725424	     -5.45349706	     -6.95181209	    -17.39998905	      4.66890992	     -1.87902375	     -6.89563599	      9.63298062	      5.89463827	     -5.31730279	    -60.11798745	      1.63942289	      4.58922786	     57.46466679	    -19.70720087	     -6.38273922	      5.42012641
      2.65500000	      5.74217568	      6.90304521	     -0.92948031	      0.16886938	      0.99328167	      0.02542648	      6.62118986	     -5.45643561	     -7.00991687	    -17.22250944	      4.86329193	     -1.68559584	     -6.89312367	     10.23355557	      5.78103882	     -5.59422550	    -60.09723394	      2.08774544	      4.64019802	     57.34866853	    -19.73151496	     -6.46641515	      5.53691260
      2.66000000	      5.64477224	      6.94865551	     -1.02571822	      0.17365246	      0.99361659	      0.02571553	      6.35765169	     -5.49242934	     -7.00684659	    -17.09941429	      5.15509979	     -1.49694925	     -7.10616403	     10.95524741	      5.71660174	     -5.84672630	    -60.06307373	      2.58787481	      4.76382741	     55.90355918	    -19.65325932	     -6.58131190	      5.60581810
      2.66500000	      5.64173786	      6.97406358	     -1.10811475	      0.17851757	      0.99412748	      0.02601747	      5.95319919	     -5.50213293	     -7.03954837	    -16.91100921	      5.31355090	     -1.39907023	     -7.09059809	     11.52936177	      5.63080643	     -6.08237588	    -59.90650269	      2.99864739	      4.71968858	     55.86391389	    -19.67509545	     -6.67395022	      5.66076159
      2.67000000	      5.53256429	      7.05665132	     -1.24827826	      0.18329407	      0.99442114	      0.02631183	      5.74028454	     -5.58214572	     -7.02779496	    -16.83760349	      5.58769399	     -1.19427701	     -7.19448667	     12.21359061	      5.59975786	     -6.38917385	    -59.70470555	      3.44065030	      4.80794421	     54.64222282	    -19.57817013	     -6.84077558	      5.78905796
      2.67500000	      5.53260035	      7.05642900	     -1.30764172	      0.18811097	      0.99487821	      0.02656652	      5.34000092	     -5.56133996	     -7.04220802	    -16.66421895	      5.77376085	     -1.14743635	     -7.17442461	     12.75639857	      5.49693524	     -6.58738060	    -59.43776813	      3.81639586	      4.74598873	     54.58653987	    -19.60996560	     -6.89869244	      5.84151535
      2.68000000	      5.46748389	      7.10315349	     -1.42088149	      0.19287439	      0.99519452	      0.02685040	      5.06701864	     -5.59253582	     -7.00347090	    -16.57204408	      6.02035236	     -1.05457005	     -7.24372291	     13.35330351	      5.43728780	     -6.84744023	    -59.11639853	      4.25294772	      4.82948008	     53.09129695	    -19.56737604	     -7.02406853	      5.95448421
      2.68500000	      5.44347282	      7.13520400	     -1.46890430	      0.19769054	      0.99559901	      0.02704936	      4.70673194	     -5.60943089	     -7.02493649	    -16.42200254	      6.17484444	     -1.03741952	     -7.22341945	     13.87234826	      5.38410665	     -7.02641797	    -58.69632346	      4.58664814	      4.75875747	     53.05834027	    -19.57290283	     -7.11494063	      5.99677779
      2.69000000	      5.39340492	      7.20564000	     -1.58661484	      0.20245489	      0.99592102	      0.02723582	      4.42972494	     -5.67854223	     -7.01160486	    -16.34559727	      6.37607135	     -0.94505437	     -7.20534753	     14.39772719	      5.36754220	     -7.28389720	    -58.21145992	      4.95503723	      4.72988477	     51.93360742	    -19.54436762	     -7.25867537	      6.15413214
